<?xml version="1.0" encoding="utf-8"?>
<!-- Svg Vector Icons : http://www.onlinewebfonts.com/icon -->
<!DOCTYPE svg PUBLIC "-//W3C//DTD SVG 1.1//EN" "http://www.w3.org/Graphics/SVG/1.1/DTD/svg11.dtd">
<svg version="1.1" xmlns="http://www.w3.org/2000/svg" xmlns:xlink="http://www.w3.org/1999/xlink" x="0px" y="0px" viewBox="0 0 256 256" enable-background="new 0 0 256 256" xml:space="preserve">
<metadata> Svg Vector Icons : http://www.onlinewebfonts.com/icon </metadata>
<g><g><g><path fill="#000000" d="M117.5,7.5C93.6,9.6,72,18.1,53.4,32.7c-5.2,4.1-15.4,14.6-19.5,20c-16.5,22-24.9,48-23.9,74.4c1.2,29.5,12.8,56.4,33.4,77.5c18.4,18.7,44.4,31.3,70.5,33.9c2.9,0.3,6.7,0.5,8.6,0.4l3.3-0.1l5.3-19.5l5.3-19.5l9.2-9.2l9.2-9.3l-1.1-1.9c-1-1.7-1.1-2.5-1.2-9.1l-0.2-7.2l3.1-4.5c3.6-5.3,7.3-12,9.4-17.4c1.3-3.3,1.8-4,3.4-4.9c2.4-1.4,5-4.9,6-8.1c0.6-2.1,0.7-4.5,0.6-13.1c-0.1-10.6-0.1-10.7-1.4-13.1c-0.7-1.3-1.5-2.6-1.8-2.8c-0.4-0.2-0.5-4.7-0.4-14c0-8.6-0.1-14.5-0.5-15.9c-3.6-15.4-14.9-24.7-33.3-27.5c-6.6-1-21.3-0.6-27,0.7c-13,3.1-21.4,9-26.2,18.7c-3,5.9-3.4,8.7-3.4,23.8v13.5l-1.4,2.2c-2.2,3.4-2.5,6-2.3,16.9c0.1,9.4,0.2,9.9,1.4,12.4c0.7,1.4,1.9,3.3,2.6,4.1c1,1,2,3.2,3,6.2c2,5.9,5.4,13,8.9,18.3l2.6,4.1v6.9c0,7.7-0.5,9.7-3.2,12c-0.8,0.7-9.2,5.5-18.8,10.7s-17.9,9.8-18.5,10.2c-1.1,0.7-1.2,0.5-5.3-3.5c-16.8-17.1-27.4-38.7-30.4-61.8c-1-7.6-1-20.3,0-27.6c3.1-23.3,13.1-44.3,29.4-61c16.4-17,36.9-27.8,60.5-31.7c7.4-1.2,27-1.2,33.9,0c16,2.9,30,8.5,42.5,16.9c6.6,4.4,11.2,8.3,17.1,14.3c5.8,6,8.8,9.7,13,15.9c11.1,16.9,17.3,36.5,17.7,57.1l0.1,7.1l2.2,1.4c1.1,0.8,2.9,2.2,3.8,3.1l1.7,1.6l0.3-2.5c0.2-1.4,0.3-5.1,0.3-8.3c0-30.2-11.5-58.9-32.2-80.5c-18.2-18.9-41.5-30.9-67.2-34.8C137.5,7.6,121.9,7.1,117.5,7.5z"/><path fill="#000000" d="M217.9,138.6c-0.7,0.2-1.9,0.7-2.6,1.1c-0.8,0.4-16.3,15.7-34.5,33.9l-33.1,33.1l-4.4,16.3c-4.2,15.3-4.5,16.4-6.1,18c-2.1,2.2-2.3,4.5-0.6,6.4c1.7,1.8,4.3,1.7,6.6-0.4c1.6-1.5,3.2-2,17.8-6c8.8-2.4,16.4-4.6,16.7-4.8c0.4-0.2,15.4-15.2,33.4-33.2c20.6-20.7,32.9-33.5,33.6-34.7c1.5-2.9,1.7-6,0.7-9.4c-0.8-2.6-1.3-3.3-8.5-10.6c-4.3-4.3-8.6-8.3-9.7-8.8C225.2,138.4,220,137.9,217.9,138.6z M230.5,153.8c9.4,9.3,9.3,8.5,0.6,17.3l-6.5,6.5l-8.9-8.9l-9-9l6.2-6.3c3.4-3.4,6.6-6.5,7.2-6.6C222,145.9,223.4,146.9,230.5,153.8z M209.8,174.7l8.8,8.8L197,205.2l-21.6,21.6l-8.9-9l-9-8.9l21.5-21.5c11.8-11.8,21.6-21.5,21.8-21.5C200.8,165.9,204.9,169.9,209.8,174.7z M166.7,230.5c0,0.3-17.8,5.2-18.1,5c0-0.1,1-4.3,2.4-9.3l2.5-9.2l6.6,6.6C163.8,227.2,166.7,230.3,166.7,230.5z"/></g></g></g>
</svg>